<svg width="400" height="400" viewBox="0 0 400 400" fill="none" xmlns="http://www.w3.org/2000/svg">
<path d="M44.0895 290.015C43.7557 289.438 43.4251 288.859 43.0975 288.278L56.091 280.777C56.4179 281.358 56.7483 281.937 57.0821 282.514L44.0895 290.015Z" fill="#434343"/>
<path d="M109.985 355.911C109.408 355.577 108.833 355.24 108.26 354.899L115.761 341.906C116.334 342.247 116.909 342.584 117.486 342.918L109.985 355.911Z" fill="#434343"/>
<path d="M290.015 355.91C289.438 356.244 288.859 356.575 288.278 356.902L280.777 343.909C281.358 343.582 281.937 343.252 282.514 342.918L290.015 355.91Z" fill="#434343"/>
<path d="M355.91 290.015C355.577 290.592 355.239 291.167 354.899 291.741L341.906 284.239C342.247 283.666 342.584 283.091 342.918 282.514L355.91 290.015Z" fill="#434343"/>
<path d="M354.899 108.26C355.24 108.833 355.577 109.408 355.911 109.985L342.918 117.486C342.584 116.909 342.247 116.334 341.906 115.761L354.899 108.26Z" fill="#434343"/>
<path d="M288.278 43.0975C288.859 43.4251 289.438 43.7557 290.015 44.0895L282.514 57.0821C281.937 56.7483 281.358 56.4179 280.777 56.091L288.278 43.0975Z" fill="#434343"/>
<path d="M108.26 45.1007C108.833 44.7605 109.408 44.4234 109.985 44.0894L117.486 57.082C116.909 57.416 116.334 57.7534 115.761 58.0941L108.26 45.1007Z" fill="#434343"/>
<path d="M43.0974 111.722C43.425 111.141 43.7556 110.562 44.0894 109.985L57.082 117.486C56.7482 118.063 56.4178 118.642 56.0909 119.224L43.0974 111.722Z" fill="#434343"/>
<path d="M188.617 56H185.017V25.1L178.667 30.7L176.417 28L185.417 20.6H188.617V56Z" fill="#434343"/>
<path d="M223.9 56H201.4V51.85L215.5 37.5C216.033 36.9667 216.567 36.4 217.1 35.8C217.633 35.2 218.117 34.5667 218.55 33.9C218.983 33.2333 219.333 32.5333 219.6 31.8C219.867 31.0667 220 30.3 220 29.5C220 28.5333 219.817 27.6667 219.45 26.9C219.117 26.1333 218.633 25.4833 218 24.95C217.367 24.4167 216.633 24.0167 215.8 23.75C214.967 23.45 214.083 23.3 213.15 23.3C211.35 23.3 209.817 23.8 208.55 24.8C207.283 25.8 206.467 27.15 206.1 28.85L202.3 28.45C202.8 25.8167 204 23.75 205.9 22.25C207.833 20.75 210.167 20 212.9 20C214.333 20 215.683 20.2 216.95 20.6C218.25 20.9667 219.383 21.5333 220.35 22.3C221.35 23.0667 222.133 24.0333 222.7 25.2C223.3 26.3333 223.6 27.6667 223.6 29.2C223.6 30.5667 223.383 31.8167 222.95 32.95C222.55 34.0833 222.017 35.15 221.35 36.15C220.683 37.15 219.917 38.1 219.05 39C218.217 39.9 217.35 40.7833 216.45 41.65L205.3 52.7H223.9V56Z" fill="#434343"/>
<path d="M191.108 365.65C191.108 366.783 191.292 367.817 191.658 368.75C192.058 369.683 192.608 370.5 193.308 371.2C194.008 371.867 194.842 372.383 195.808 372.75C196.775 373.117 197.842 373.3 199.008 373.3C200.175 373.3 201.242 373.117 202.208 372.75C203.175 372.383 204.008 371.867 204.708 371.2C205.408 370.5 205.942 369.683 206.308 368.75C206.708 367.817 206.908 366.783 206.908 365.65C206.908 364.517 206.708 363.483 206.308 362.55C205.942 361.617 205.408 360.817 204.708 360.15C204.008 359.483 203.175 358.967 202.208 358.6C201.242 358.2 200.175 358 199.008 358C197.842 358 196.775 358.2 195.808 358.6C194.842 358.967 194.008 359.483 193.308 360.15C192.608 360.817 192.058 361.617 191.658 362.55C191.292 363.483 191.108 364.517 191.108 365.65ZM194.708 355.8L194.808 355.9C195.375 355.5 196.125 355.2 197.058 355C198.025 354.8 198.908 354.7 199.708 354.7C201.242 354.7 202.658 354.983 203.958 355.55C205.292 356.083 206.442 356.833 207.408 357.8C208.375 358.767 209.125 359.917 209.658 361.25C210.225 362.583 210.508 364.05 210.508 365.65C210.508 367.283 210.225 368.767 209.658 370.1C209.092 371.433 208.292 372.583 207.258 373.55C206.225 374.517 205.008 375.267 203.608 375.8C202.208 376.333 200.675 376.6 199.008 376.6C197.342 376.6 195.808 376.333 194.408 375.8C193.008 375.267 191.792 374.517 190.758 373.55C189.725 372.583 188.925 371.433 188.358 370.1C187.792 368.767 187.508 367.283 187.508 365.65C187.508 363.683 187.792 361.967 188.358 360.5C188.958 359.033 189.692 357.583 190.558 356.15L200.108 340.6H204.358L194.708 355.8Z" fill="#434343"/>
<path d="M364.308 195.8H366.158C367.192 195.8 368.175 195.683 369.108 195.45C370.075 195.217 370.908 194.85 371.608 194.35C372.308 193.817 372.858 193.133 373.258 192.3C373.692 191.467 373.908 190.467 373.908 189.3C373.908 187.4 373.325 185.933 372.158 184.9C371.025 183.833 369.425 183.3 367.358 183.3C365.858 183.3 364.542 183.633 363.408 184.3C362.275 184.967 361.342 185.933 360.608 187.2L357.458 185.6C358.525 183.7 359.875 182.3 361.508 181.4C363.175 180.467 365.092 180 367.258 180C368.658 180 369.975 180.2 371.208 180.6C372.442 181 373.525 181.6 374.458 182.4C375.392 183.167 376.125 184.133 376.658 185.3C377.225 186.433 377.508 187.733 377.508 189.2C377.508 190.167 377.342 191.083 377.008 191.95C376.708 192.817 376.275 193.6 375.708 194.3C375.175 195 374.542 195.617 373.808 196.15C373.075 196.65 372.308 197.033 371.508 197.3L371.658 197.4C372.658 197.6 373.575 197.983 374.408 198.55C375.242 199.083 375.958 199.75 376.558 200.55C377.158 201.35 377.625 202.25 377.958 203.25C378.292 204.25 378.458 205.3 378.458 206.4C378.458 208.033 378.158 209.483 377.558 210.75C376.958 212.017 376.142 213.083 375.108 213.95C374.075 214.817 372.875 215.483 371.508 215.95C370.142 216.383 368.692 216.6 367.158 216.6C364.558 216.6 362.292 216.033 360.358 214.9C358.425 213.767 356.975 211.95 356.008 209.45L359.808 208.3C360.408 210 361.292 211.267 362.458 212.1C363.658 212.9 365.325 213.3 367.458 213.3C368.458 213.3 369.408 213.133 370.308 212.8C371.208 212.467 371.992 212 372.658 211.4C373.358 210.767 373.892 210.017 374.258 209.15C374.658 208.283 374.858 207.333 374.858 206.3C374.858 204.967 374.608 203.85 374.108 202.95C373.608 202.017 372.942 201.267 372.108 200.7C371.275 200.133 370.308 199.733 369.208 199.5C368.142 199.233 367.025 199.1 365.858 199.1H364.308V195.8Z" fill="#434343"/>
<path d="M38.9084 190.95C38.9084 189.817 38.7084 188.783 38.3084 187.85C37.9418 186.917 37.4084 186.117 36.7084 185.45C36.0084 184.783 35.1751 184.267 34.2084 183.9C33.2418 183.5 32.1751 183.3 31.0084 183.3C29.8418 183.3 28.7751 183.5 27.8084 183.9C26.8418 184.267 26.0084 184.783 25.3084 185.45C24.6084 186.117 24.0584 186.917 23.6584 187.85C23.2918 188.783 23.1084 189.817 23.1084 190.95C23.1084 192.083 23.2918 193.117 23.6584 194.05C24.0584 194.983 24.6084 195.8 25.3084 196.5C26.0084 197.167 26.8418 197.683 27.8084 198.05C28.7751 198.417 29.8418 198.6 31.0084 198.6C32.1751 198.6 33.2418 198.417 34.2084 198.05C35.1751 197.683 36.0084 197.167 36.7084 196.5C37.4084 195.8 37.9418 194.983 38.3084 194.05C38.7084 193.117 38.9084 192.083 38.9084 190.95ZM35.3084 200.8L35.2084 200.7C34.6418 201.1 33.8751 201.4 32.9084 201.6C31.9751 201.8 31.1084 201.9 30.3084 201.9C28.7751 201.9 27.3418 201.633 26.0084 201.1C24.7084 200.533 23.5751 199.767 22.6084 198.8C21.6418 197.833 20.8751 196.683 20.3084 195.35C19.7751 194.017 19.5084 192.55 19.5084 190.95C19.5084 189.317 19.7918 187.833 20.3584 186.5C20.9251 185.167 21.7251 184.017 22.7584 183.05C23.7918 182.083 25.0084 181.333 26.4084 180.8C27.8084 180.267 29.3418 180 31.0084 180C32.6751 180 34.2084 180.267 35.6084 180.8C37.0084 181.333 38.2251 182.083 39.2584 183.05C40.2918 184.017 41.0918 185.167 41.6584 186.5C42.2251 187.833 42.5084 189.317 42.5084 190.95C42.5084 192.917 42.2084 194.633 41.6084 196.1C41.0418 197.567 40.3251 199.017 39.4584 200.45L29.9084 216H25.6584L35.3084 200.8Z" fill="#434343"/>
</svg>
